<svg xmlns="http://www.w3.org/2000/svg" width="1280" height="640" viewBox="0 0 1280 640">
  <defs>
    <linearGradient id="bg" x1="0%" y1="0%" x2="100%" y2="100%">
      <stop offset="0%" stop-color="#0B1E3D"/>
      <stop offset="100%" stop-color="#122A52"/>
    </linearGradient>
    <linearGradient id="stroke" x1="0%" y1="0%" x2="0%" y2="100%">
      <stop offset="0%" stop-color="#4F8DFF"/>
      <stop offset="100%" stop-color="#FFFFFF"/>
    </linearGradient>
  </defs>

  <rect width="1280" height="640" fill="url(#bg)"/>

  <!-- Vector chevron mark -->
  <g transform="translate(140,140)">
    <polygon points="0,0 60,0 130,300 90,300" fill="url(#stroke)"/>
    <polygon points="260,0 200,0 130,300 170,300" fill="url(#stroke)"/>
    <circle cx="130" cy="300" r="14" fill="#FFFFFF"/>
  </g>

  <text x="470" y="270" font-family="Segoe UI, Helvetica, Arial, sans-serif" font-size="72" font-weight="600" fill="#FFFFFF">Vector Markdown</text>
  <text x="470" y="320" font-family="Segoe UI, Helvetica, Arial, sans-serif" font-size="28" fill="#9DB4DD">Branded preview themes. One-click PDF, HTML &amp; DOCX export.</text>

  <g transform="translate(470,380)" font-family="Segoe UI, Helvetica, Arial, sans-serif" font-size="18" fill="#C7D5EC">
    <rect x="0" y="0" width="150" height="34" rx="6" fill="#132C56"/>
    <text x="20" y="23">Windows</text>
    <rect x="166" y="0" width="130" height="34" rx="6" fill="#132C56"/>
    <text x="186" y="23">macOS</text>
    <rect x="312" y="0" width="130" height="34" rx="6" fill="#132C56"/>
    <text x="332" y="23">Linux</text>
  </g>
</svg>
